<svg width="1081" height="1081" viewBox="0 0 1081 1081" fill="none" xmlns="http://www.w3.org/2000/svg">
<path d="M696.774 883.186C678.821 897.043 662.741 909.448 640.479 914.916C608.295 922.819 581.336 928.464 547.5 925.908C534.303 924.91 524.385 918.843 512.085 915.822C494.384 911.475 474.247 911.095 456.02 909.816C432.196 908.145 408.697 905.939 385.421 900.524C370.71 897.101 353.882 893.385 338.701 893.385C325.087 893.385 315.318 878.534 304.324 872.534C293.528 866.642 276.284 855.522 270.639 844.43C264.709 832.78 268.334 818.938 263.256 807.715C260.851 802.4 262.794 792.636 262.794 786.864C262.794 778.567 261.145 770.814 260.718 762.84C260.076 750.861 257.025 736.826 254.373 725.104C251.631 712.981 249.739 698.538 239.03 689.522C228.028 680.258 229.052 655.447 222.303 643.514C212.554 626.276 210.123 607.103 205.807 588.327C202.24 572.808 198.999 558.873 202.462 543.565C205.223 531.359 208.806 515.264 208.806 502.77C208.806 499.727 212.021 485.918 213.998 487.472C216.105 489.128 218.822 497.444 222.303 497.444C227.855 497.444 228.287 466.517 237.877 478.293C243.563 485.275 257.416 459.749 262.333 454.382C267.061 449.221 278.36 450.057 283.559 453.249M283.559 453.249C288.26 456.135 278.497 460.432 283.559 453.249ZM283.559 453.249C290.492 443.412 310.608 435.391 323.012 443.919C330.955 449.381 323.012 415.135 323.012 412C323.012 406.595 329.373 414.712 331.318 417.1C335.913 422.742 352.487 419.229 355.197 417.1C361.967 411.779 346.432 407.921 355.197 407.921C360.247 407.921 365.767 400.97 366.733 396.702C367.847 391.776 377.11 395.062 380.114 396.702C383.604 398.607 386.695 389.553 388.42 386.503C390.716 382.444 392.233 380.275 397.764 384.35C400.82 386.602 410.225 371.827 412.299 370.299C413.254 369.595 417.405 377.995 418.529 369.165C418.831 366.791 420.447 365.844 420.605 363.046C420.907 357.712 424.167 362.07 426.373 360.553C428.454 359.122 431.762 351.046 433.525 352.394C437.388 355.345 441.019 356.138 443.908 353.3C447.044 350.219 448.815 345.773 452.214 343.102C454.559 341.259 456.2 345.244 457.52 344.235C459.59 342.653 459.152 340.701 460.519 339.022C463.826 334.962 461.531 326.561 464.672 322.704C465.839 321.272 467.041 309.714 467.902 310.465C472.069 314.103 479.134 340.754 483.361 332.45C491.389 316.676 493.344 343.347 497.896 348.314C511.475 363.136 502.846 396.597 502.846 417.1" stroke="#FFB800" stroke-width="8" stroke-linecap="round" stroke-linejoin="round"/>
<path d="M501.489 417.074C501.489 430.168 516.902 431.722 516.902 444.816C516.902 451.311 516.75 452.553 520.676 445.878C528.342 432.847 508.472 472.68 508.782 478.573C509.809 498.082 528.509 503.067 529.642 522.32C530.486 536.675 534.658 557.096 544.977 568.562C549.846 573.972 553.404 595.938 556.648 602.064C562.35 612.835 579.69 593.339 589.096 598.289C593.155 600.426 596.494 604.449 600.893 605.249C611.283 607.138 607.305 603.778 614.577 599.233C619.844 595.941 626.785 605.778 629.912 608.906C633.928 612.921 639.564 600.437 643.36 602.064C646.252 603.303 649.732 607.255 652.798 607.255C659.669 607.255 666.761 591.049 667.661 607.255C667.982 613.022 672.978 610.671 677.216 608.316C682.24 605.525 680.802 605.452 685.12 608.906C688.418 611.544 693.635 605.367 696.327 605.367C698.07 605.367 696.781 608.749 698.568 609.26C700.728 609.877 703.645 609.378 705.882 609.378C713.864 609.378 723.57 595.315 728.767 605.131C734.028 615.068 749.977 611.077 757.905 608.434C760.49 607.573 775.35 619.995 781.262 619.995C788.352 619.995 803.342 620.889 808.866 625.185C813.815 629.035 821.13 622.323 826.443 622.118C833.778 621.836 834.672 625.802 840.717 628.488C848.05 631.748 856.41 637.067 863.956 639.223C882.125 644.414 871.52 673.048 867.259 682.634C853.009 682.634 837.582 700.216 826.443 714.139C813.815 729.925 797.19 751.494 781.262 763.882C768.02 774.181 752.539 794.177 744.402 808.823C734.759 826.181 733.256 834.744 720.746 850.381C715.679 856.714 710.46 862.721 705.764 869.374C702.963 873.342 699.512 876.089 699.512 881.17C699.512 885.371 698.959 892.064 695.265 893.911" stroke="#FFB800" stroke-width="8" stroke-linecap="round" stroke-linejoin="round"/>
<path d="M292.373 838.766C292.385 838.747 292.396 838.728 292.407 838.709C292.67 838.266 293.062 837.609 293.577 836.752C294.608 835.039 296.134 832.528 298.112 829.341C302.067 822.967 307.831 813.885 315.064 803.057C329.531 781.402 349.869 752.771 373.36 724.86C396.854 696.946 423.485 669.772 450.534 651.014C477.597 632.247 504.986 621.967 530.037 627.661C580.599 639.153 629.456 642.653 681.297 644.403C696.709 644.923 712.383 645.289 728.443 645.663C766.124 646.542 805.934 647.47 849.494 650.562L624.287 900.595L292.373 838.766Z" fill="white" stroke="black"/>
<path d="M617.219 866.28L353.603 817.174L542.491 660.647L796.223 678.832L617.219 866.28Z" fill="white" stroke="black"/>
<path d="M662.619 797.071L562.48 778.417L634.241 714.661L730.624 721.569L662.619 797.071Z" fill="white" stroke="black"/>
<path d="M357.514 455.64L468.312 351.994L490.924 501.236L490.93 501.273L490.941 501.309L530.358 628.322L293.652 837.62L267.307 689.362L267.303 689.339L267.297 689.316L223.422 529.964L357.415 455.712L357.469 455.682L357.514 455.64Z" fill="white" stroke="black"/>
<path d="M506.362 618.28L313.544 784.58L257.718 544.187L370.279 479.709L370.33 479.68L370.373 479.639L457.729 397.262L471.397 509.032L471.403 509.078L471.417 509.123L506.362 618.28Z" fill="black" stroke="black"/>
<line x1="376.278" y1="652.669" x2="453.255" y2="593.995" stroke="white" stroke-width="2"/>
<line y1="-1" x2="73.6884" y2="-1" transform="matrix(0.966276 0.257508 -0.227938 0.973676 396.179 514.997)" stroke="white" stroke-width="2"/>
<line y1="-1" x2="79.858" y2="-1" transform="matrix(-0.229835 0.97323 -0.965684 -0.259719 440.958 485.625)" stroke="white" stroke-width="2"/>
<line y1="-1" x2="87.6251" y2="-1" transform="matrix(0.966276 0.257508 -0.227938 0.973676 294.371 587.435)" stroke="white" stroke-width="2"/>
<line y1="-1" x2="94.9616" y2="-1" transform="matrix(-0.229835 0.97323 -0.965684 -0.259719 347.617 552.507)" stroke="white" stroke-width="2"/>
<path d="M716.804 903.84C697.227 919.221 679.692 932.993 655.417 939.062C620.322 947.835 590.924 954.102 554.028 951.264C539.637 950.157 528.822 943.421 515.409 940.068C496.108 935.243 474.149 934.821 454.274 933.401C428.295 931.545 402.67 929.097 377.289 923.086C361.247 919.286 342.897 915.161 326.342 915.161C311.497 915.161 300.846 898.676 288.856 892.015C277.084 885.475 258.281 873.131 252.125 860.818C245.658 847.886 249.611 832.52 244.074 820.061C241.452 814.162 243.571 803.323 243.571 796.916C243.571 787.706 241.772 779.099 241.306 770.247C240.607 756.95 237.279 741.37 234.388 728.358C231.397 714.9 229.334 698.868 217.657 688.859C205.66 678.576 206.776 651.034 199.417 637.787C188.787 618.652 186.135 597.369 181.429 576.526C177.539 559.3 174.005 543.831 177.781 526.838C180.792 513.289 184.7 495.422 184.7 481.553C184.7 478.175 188.205 462.846 190.36 464.571C192.659 466.409 195.621 475.64 199.417 475.64C205.471 475.64 205.942 441.31 216.399 454.381C222.6 462.132 237.705 433.797 243.068 427.839C248.224 422.11 246.959 417.503 252.628 421.046C257.754 424.25 260.693 434.555 266.213 426.581C273.774 415.661 282.627 400.257 296.152 409.725C304.814 415.788 309.235 384.273 309.235 380.792C309.235 374.792 316.171 383.802 318.292 386.453C323.303 392.717 330.055 383.156 333.009 380.792C340.392 374.887 334.773 376.264 344.331 376.264C349.837 376.264 355.857 368.548 356.91 363.81C358.125 358.342 368.226 361.99 371.502 363.81C375.307 365.924 378.678 355.875 380.559 352.489C383.063 347.982 384.717 345.575 390.748 350.099C394.081 352.598 404.336 336.197 406.598 334.501C407.639 333.72 412.166 343.044 413.391 333.243C413.721 330.607 415.483 329.556 415.655 326.45C415.984 320.529 419.539 325.367 421.945 323.682C424.214 322.094 427.821 313.129 429.744 314.625C433.956 317.901 437.915 318.782 441.066 315.632C444.486 312.211 446.417 307.275 450.123 304.31C452.68 302.265 454.469 306.688 455.909 305.568C458.167 303.813 457.689 301.645 459.18 299.782C462.785 295.275 460.283 285.95 463.708 281.668C464.98 280.078 466.292 267.247 467.231 268.082C471.774 272.12 479.478 301.704 484.087 292.486C492.842 274.976 494.974 304.582 499.937 310.097C514.745 326.55 524.341 360.297 524.341 383.057" stroke="#FF0000" stroke-width="8" stroke-linecap="round" stroke-linejoin="round"/>
<path d="M524.34 362.269C524.34 376.79 524.34 382.092 524.34 396.613C518.363 396.613 533.739 404.014 537.925 396.613C546.1 382.162 548.698 416.926 537.926 424.482C548.698 439.635 541.97 466.098 543.177 487.447C544.078 503.366 543.274 530.339 554.279 543.054C559.471 549.053 572.129 573.412 575.588 580.206C581.669 592.15 591.295 570.53 601.325 576.019C605.654 578.388 609.214 582.851 613.905 583.737C624.984 585.832 620.743 582.106 628.497 577.066C634.113 573.415 641.514 584.324 644.85 587.793C649.131 592.245 655.141 578.401 659.19 580.206C662.274 581.58 665.985 585.961 669.253 585.961C676.58 585.961 684.143 567.991 685.103 585.961C685.445 592.357 690.772 589.75 695.293 587.139C700.649 584.044 699.116 583.962 703.721 587.793C707.237 590.718 712.8 583.868 715.671 583.868C717.53 583.868 716.155 587.619 718.061 588.185C720.364 588.869 723.475 588.316 725.86 588.316C734.372 588.316 744.722 572.721 750.264 583.607C755.874 594.626 772.881 590.2 781.335 587.269C784.091 586.314 799.938 600.089 806.242 600.089C813.803 600.089 829.787 601.081 835.678 605.845C840.955 610.114 848.755 602.67 854.421 602.444C862.243 602.131 863.196 606.529 869.642 609.508C877.461 613.122 881.097 634.677 894.423 621.412C913.797 627.168 902.489 658.92 897.945 669.551C890.553 686.848 866.299 713.324 854.421 728.764C840.955 746.268 839.076 750.131 822.092 763.868C807.971 775.29 790.011 781.347 781.335 797.587C771.052 816.836 755.05 838.229 741.71 855.569C736.308 862.592 730.742 869.253 725.734 876.63C722.748 881.03 719.067 884.077 719.067 889.712C719.067 894.37 718.478 901.791 714.539 903.839" stroke="#FF0000" stroke-width="8" stroke-linecap="round" stroke-linejoin="round"/>
<path d="M417.945 862.027C420.778 855.103 424.042 847.434 429.439 842.037C430.008 841.469 430.403 842.787 430.938 842.787C431.723 842.787 432.99 841.904 433.687 841.538C435.991 840.325 438.908 837.437 441.558 837.29C444.803 837.109 449.429 836.338 452.115 834.479C456.151 831.684 461.101 827.866 464.608 824.359C468.298 820.669 474.836 821.104 477.539 817.05" stroke="black" stroke-linecap="round" stroke-linejoin="round"/>
<path d="M477.539 815.926C478.276 812.055 479.145 801.067 483.161 799.059" stroke="black" stroke-linecap="round" stroke-linejoin="round"/>
<path d="M471.917 820.423C478.383 820.423 481.167 819.964 486.534 818.174" stroke="black" stroke-linecap="round" stroke-linejoin="round"/>
<path d="M636.467 667.084C634.898 669.27 633.979 670.376 635.577 672.485C636.348 673.502 638.975 675.25 638.668 676.712C638.21 678.884 636.247 680.031 637.357 682.375C637.891 683.5 639.013 684.025 639.137 685.402C639.371 687.993 639.318 689.784 638.791 692.343C638.213 695.148 637.357 697.128 637.357 700.014C637.357 701.229 637.882 703.846 637.11 704.894C636.729 705.411 636.209 706.201 636.047 706.799C635.378 709.269 635.366 712.15 634.242 714.522" stroke="black" stroke-linecap="round" stroke-linejoin="round"/>
<path d="M247.675 616.033C248.854 616.328 256.643 616.554 256.821 618.658C256.897 619.567 257.449 620.992 257.912 621.637C258.423 622.35 258.927 622.588 259.182 623.616C259.559 625.133 259.911 625.874 261.11 626.324C262.056 626.679 263.814 628.857 263.814 630.282C263.814 631.305 263.976 631.597 264.621 632.073C265.319 632.588 265.338 635.092 265.563 636.031C265.9 637.44 266.806 637.075 267.58 637.614C268.324 638.133 268.815 638.833 269.463 639.364C270.343 640.085 270.437 640.872 271.526 641.343C272.616 641.815 274.225 641.833 275.052 643.114C275.783 644.246 275.471 647.53 276.786 647.53C278.47 647.53 280.153 647.53 281.837 647.53" stroke="black" stroke-linecap="round" stroke-linejoin="round"/>
<path d="M478.625 637.757C486.254 643.306 487.268 640.471 492.774 635.516C495.105 633.418 501.199 629.005 504.471 630.823C507.809 632.677 512.522 635.238 516.449 633.274C518.864 632.067 527.796 623.862 527.796 630.193" stroke="black" stroke-linecap="round" stroke-linejoin="round"/>
<path d="M263.293 629.256C263.293 627.554 262.692 624.341 263.522 622.773C263.855 622.145 264.292 621.595 264.455 620.858C265.493 616.187 261.539 610.764 260.641 606.271C260.24 604.265 260.41 603.191 260.968 601.376C261.48 599.713 262.809 596.581 264.243 595.433C264.97 594.852 265.408 594.86 266.011 593.829C266.863 592.371 267.819 591.086 268.434 589.507C268.79 588.591 269.183 587.717 269.481 586.822" stroke="black" stroke-linecap="round" stroke-linejoin="round"/>
<path d="M293.056 837.303C295.388 834.163 296.535 830.502 298.033 826.924C299.367 823.737 301.703 821.261 304.548 819.327C307.397 817.391 307.666 816.995 308.412 813.597C309.731 807.59 311.758 802.157 315.812 797.455C316.34 796.843 316.367 796.633 316.188 795.884C315.889 794.625 316.129 793.319 316.27 792.053C316.512 789.872 317.139 787.725 317.531 785.57C318.363 780.992 320.167 776.288 320.167 771.589" stroke="black" stroke-linecap="round" stroke-linejoin="round"/>
<path d="M316.336 796.637C315.835 795.656 314.048 793.699 313.978 792.511C313.909 791.336 314.044 790.15 313.978 788.975C313.884 787.271 312.862 784.958 313.389 783.376" stroke="black" stroke-linecap="round" stroke-linejoin="round"/>
<path d="M352.877 816.97C350.853 816.223 346.967 815.521 345.739 813.434C344.321 811.023 340.034 810.185 337.455 809.914C336.02 809.763 333.963 809.608 332.544 809.963C331.426 810.242 330.932 810.781 329.744 810.781C328.717 810.781 327.675 810.835 326.65 810.781C326.031 810.749 325.624 810.192 324.882 810.192" stroke="black" stroke-linecap="round" stroke-linejoin="round"/>
<path d="M616.541 866.154C613.47 857.301 613.267 852.565 615.622 844.32C617.482 837.81 616.541 832.595 616.541 825.35C616.541 821.602 617.514 818.33 617.514 814.595C617.514 811.325 616.355 809.008 616.541 805.84C616.88 800.076 624.324 796.312 624.324 790.276" stroke="black" stroke-linecap="round" stroke-linejoin="round"/>
<path d="M309.989 659.115C322.955 676.071 338.993 693.166 361.877 693.166" stroke="#FF0000" stroke-linecap="round" stroke-linejoin="round"/>
<path d="M331.88 669.655C326.533 675.307 320.401 681.644 316.161 688.167C315.282 689.518 313.919 690.172 313.233 691.545" stroke="#FF0000" stroke-linecap="round" stroke-linejoin="round"/>
<path d="M336.744 678.573C334.753 683.925 332.854 689.432 331.069 694.788" stroke="#FF0000" stroke-linecap="round" stroke-linejoin="round"/>
<path d="M348.095 683.437C348.095 691.047 346.474 698.57 346.474 706.138" stroke="#FF0000" stroke-linecap="round" stroke-linejoin="round"/>
<path d="M415.387 462.103C426.531 457.592 432.438 461.85 441.331 467.779" stroke="#FF0000" stroke-linecap="round" stroke-linejoin="round"/>
<path d="M420.251 465.346C421.894 460.828 422.683 456.338 422.683 451.564" stroke="#FF0000" stroke-linecap="round" stroke-linejoin="round"/>
<path d="M429.98 466.157C432.442 462.772 434.022 458.877 436.466 455.617" stroke="#FF0000" stroke-linecap="round" stroke-linejoin="round"/>
<path d="M529.646 671.729C530.31 675.374 529.456 680.074 531.332 683.446C533.127 686.671 535.795 688.449 538.388 691.112C539.489 692.242 540.22 693.496 541.728 694.165C543.214 694.825 548.19 696.62 548.19 698.403C548.19 700.133 548.035 701.809 548.752 703.42C549.821 705.82 554.357 705.351 555.495 707.907C556.584 710.353 557.753 714.597 560.615 715.48C565.266 716.913 573.852 716.412 577.317 720.216C578.116 721.093 577.731 722.114 578.253 723.052C579.837 725.898 584.501 728.491 586.963 730.749C591.39 734.807 596.149 739.426 598.764 744.646" stroke="black" stroke-linecap="round" stroke-linejoin="round"/>
<path d="M549.621 704.319C545.465 703.271 541.509 701.837 537.464 700.412C535.306 699.653 533.012 698.883 531.049 697.678C528.488 696.106 525.102 695.6 522.146 695.6C519.399 695.6 516.35 696.208 513.746 695.615C512.093 695.24 508.242 694.241 508.11 691.943C508.073 691.3 507.416 690.279 508.049 689.631C508.706 688.958 509.485 689.571 509.485 688.287" stroke="black" stroke-linecap="round" stroke-linejoin="round"/>
<path d="M327.269 248.607C341.938 244.181 356.601 238.223 371.76 235.734C376.779 235.734 381.512 236.183 386.115 236.183C389.696 236.183 399.494 236.475 401.981 239.583C403.058 240.929 406.034 241.411 407.437 242.814C409.202 244.579 409.788 247.075 411.215 248.859C414.621 253.116 409.153 262.253 406.136 265.27C398.581 272.825 388.78 276.848 379.651 282.101C365.109 290.47 349.342 297.67 333.901 304.221C311.619 313.674 289.145 322.837 265.905 329.698C252.709 333.594 239.383 336.893 225.946 339.856C214.153 342.456 202.287 342.058 190.269 341.955C182.964 341.892 173.816 340.098 173.816 331.042C173.816 328.393 179.886 323.796 181.707 321.975C186.371 317.311 191.741 312.788 196.943 308.754C219.422 291.321 245.559 280.762 271.529 269.761C289.769 262.035 308.293 254.332 327.269 248.607Z" stroke="white" stroke-width="3" stroke-linecap="round" stroke-linejoin="round"/>
<path d="M287.127 274.517C300.334 268.78 314.876 264.685 328.16 259.202C330.45 258.057 331.744 257.848 334.05 256.823C336.906 255.554 340.293 254.442 343.345 253.764C344.714 253.459 347.454 252.912 348.508 252.068C349.833 251.009 352.856 250.286 354.569 249.906C356.74 249.423 359.129 248.675 361.33 247.859L361.487 247.801C365.049 246.482 368.293 245.28 372.145 244.995C375.343 244.758 378.447 244.625 381.674 244.625C383.319 244.625 384.888 244.976 386.506 244.976C387.451 244.976 388.605 244.784 389.488 245.17C392.582 246.524 395.759 250.245 393.151 253.374C391.543 255.304 390.246 257.578 388.416 259.356C387.459 260.286 386.495 261.218 385.532 262.084C384.903 262.65 383.602 263.182 383.155 263.741C381.8 265.434 378.93 266.982 377.114 268.125C375.02 269.444 371.995 270.367 370.177 271.983C368.406 273.558 365.614 274.807 363.532 275.978C361.076 277.36 358.645 278.83 355.991 279.875C353.526 280.846 351.459 282.55 349.054 283.636C342.932 286.401 337.307 289.708 331.029 292.171C323.233 295.23 315.124 297.096 307.198 299.693C299.525 302.206 291.817 304.452 284.418 307.74C278.89 310.198 273.13 313.614 267.251 315.126C262.993 316.221 258.555 317.283 254.195 317.854C249.406 318.481 244.967 320.416 240.224 321.244C231.417 322.782 222.601 324.759 213.703 325.648C210.602 325.958 207.585 326.35 204.467 326.35C203.377 326.35 200.69 326.475 199.79 325.921C197.799 324.696 195.503 324.704 195.503 321.965C195.503 321.196 196.733 319.586 197.335 319.12C199.16 317.71 201.084 316.626 203.025 315.399C209.151 311.524 215.927 308.262 222.374 304.934C226.06 303.032 229.554 300.832 233.228 298.952C236.371 297.344 239.068 295.04 242.426 293.808C248.08 291.732 253.059 287.951 258.521 285.468C267.79 281.255 277.776 278.578 287.127 274.517Z" stroke="white" stroke-width="3" stroke-linecap="round" stroke-linejoin="round"/>
</svg>
